<?xml version="1.0" standalone="no"?>
<!DOCTYPE svg PUBLIC "-//W3C//DTD SVG 20010904//EN"
 "http://www.w3.org/TR/2001/REC-SVG-20010904/DTD/svg10.dtd">
<svg version="1.0" xmlns="http://www.w3.org/2000/svg"
 width="980.000000pt" height="980.000000pt" viewBox="0 0 980.000000 980.000000"
 preserveAspectRatio="xMidYMid meet">
<metadata>
Created by potrace 1.14, written by Peter Selinger 2001-2017
</metadata>
<g transform="translate(0.000000,980.000000) scale(0.100000,-0.100000)"
fill="#000000" stroke="none">
<path d="M5100 6330 c-197 -12 -558 -64 -667 -95 -41 -12 -53 -20 -53 -35 0
-14 7 -20 23 -20 58 -1 -53 -68 -773 -464 l-464 -256 -206 0 c-467 0 -793 -40
-1231 -150 -227 -57 -374 -102 -407 -126 -13 -9 -27 -27 -32 -40 -18 -45 -180
-110 -505 -201 -18 -5 -18 -3 4 21 14 14 22 28 19 31 -11 11 -128 -41 -368
-163 -135 -68 -286 -146 -336 -173 l-91 -49 -6 -227 c-4 -124 -7 -263 -7 -307
l0 -81 113 -42 c172 -63 376 -103 652 -128 126 -11 690 -43 694 -39 3 3 -12
57 -33 121 -48 150 -60 246 -53 408 10 215 51 353 142 480 96 135 300 308 439
374 115 55 224 76 386 75 118 0 161 -5 230 -23 95 -25 244 -92 316 -142 83
-57 203 -180 261 -266 59 -89 132 -246 152 -328 33 -131 22 -382 -24 -541 -14
-46 -25 -89 -25 -95 0 -8 86 -9 293 -5 160 4 672 13 1137 21 1393 25 2660 52
2667 59 2 1 -6 37 -17 80 -47 177 -45 314 5 505 67 252 203 442 421 587 168
112 286 138 579 132 219 -6 265 -16 402 -94 186 -106 329 -253 423 -435 73
-142 81 -184 87 -465 l6 -242 86 23 c187 50 375 146 406 206 33 62 47 200 52
485 6 325 -2 411 -48 516 -17 40 -53 160 -80 267 -76 306 -100 361 -157 361
-15 0 -72 -11 -127 -25 -224 -56 -523 -21 -1444 166 -1380 280 -1540 307
-1931 328 -261 14 -762 20 -910 11z m725 -180 c297 -22 495 -61 775 -152 218
-71 361 -141 344 -169 -29 -48 -500 -160 -1089 -258 -858 -144 -1669 -221
-2213 -209 -123 2 -206 8 -213 15 -28 28 351 282 640 428 322 162 833 324
1096 348 93 8 531 6 660 -3z m-4576 -1632 c-12 -18 -34 -46 -49 -63 -62 -68
-100 -127 -100 -156 0 -32 6 -35 110 -43 76 -6 100 -13 100 -31 0 -23 -28 -36
-113 -52 -111 -20 -147 -41 -147 -87 0 -28 8 -41 48 -75 l47 -40 -85 -1 c-47
0 -102 5 -123 11 -46 13 -47 11 29 169 63 131 151 283 191 330 54 64 132 96
92 38z m-1027 -163 c47 -32 128 -140 179 -242 65 -126 45 -155 -84 -128 -122
25 -164 67 -193 191 -17 75 -15 164 5 188 19 23 51 20 93 -9z"/>
<path d="M883 5039 c-42 -21 -60 -44 -42 -55 15 -9 119 45 119 62 0 20 -28 17
-77 -7z"/>
<path d="M2202 5050 c-309 -44 -551 -268 -633 -585 -27 -104 -29 -288 -4 -395
36 -160 140 -328 263 -426 69 -54 213 -126 302 -150 103 -28 331 -26 435 4
193 56 364 188 471 364 74 121 99 248 92 460 -4 107 -11 159 -26 208 -72 223
-317 451 -543 505 -79 19 -273 27 -357 15z m309 -261 c215 -62 370 -280 372
-524 1 -158 -45 -269 -158 -382 -171 -172 -421 -211 -637 -102 -89 45 -188
147 -232 238 -108 226 -52 519 128 662 154 123 342 162 527 108z"/>
<path d="M8113 5044 c-252 -55 -481 -242 -576 -470 -64 -152 -75 -368 -27
-519 122 -386 475 -624 863 -584 322 33 578 250 669 566 30 104 33 342 4 443
-78 281 -288 490 -561 560 -93 24 -274 26 -372 4z m297 -250 c183 -52 327
-190 397 -382 22 -59 24 -79 21 -167 -4 -79 -10 -114 -31 -165 -101 -244 -373
-405 -604 -356 -332 69 -539 409 -433 711 45 130 165 261 295 326 122 60 224
69 355 33z"/>
</g>
</svg>
